<?xml version="1.0" encoding="UTF-8" standalone="no"?>
<svg
   id="Calque_2"
   data-name="Calque 2"
   viewBox="0 0 436 80.69"
   version="1.1"
   sodipodi:docname="dolistore.svg"
   inkscape:version="1.2.2 (b0a8486541, 2022-12-01)"
   xmlns:inkscape="http://www.inkscape.org/namespaces/inkscape"
   xmlns:sodipodi="http://sodipodi.sourceforge.net/DTD/sodipodi-0.dtd"
   xmlns="http://www.w3.org/2000/svg"
   xmlns:svg="http://www.w3.org/2000/svg">
  <sodipodi:namedview
     id="namedview27"
     pagecolor="#ffffff"
     bordercolor="#666666"
     borderopacity="1.0"
     inkscape:showpageshadow="2"
     inkscape:pageopacity="0.0"
     inkscape:pagecheckerboard="0"
     inkscape:deskcolor="#d1d1d1"
     showgrid="false"
     inkscape:zoom="1.793578"
     inkscape:cx="239.1867"
     inkscape:cy="-1.3938619"
     inkscape:window-width="1920"
     inkscape:window-height="1003"
     inkscape:window-x="0"
     inkscape:window-y="0"
     inkscape:window-maximized="1"
     inkscape:current-layer="Calque_2" />
  <defs
     id="defs4">
    <style
       id="style2">
      .cls-1 {
        fill: #a05a2c;
      }

      .cls-1, .cls-2 {
        stroke-width: 0px;
      }

      .cls-2 {
        fill: #263c5c;
      }
    </style>
  </defs>
  <ellipse
     id="path957"
     class="cls-1"
     cx="184.67999"
     cy="10.71"
     rx="10.32"
     ry="10.71" />
  <path
     class="cls-2"
     d="M 22.07,26.41996 V 79.567984 H 0 V 5 h 28.76 c 12.61,0 22.49,2.8734092 29.63,8.630275 8.48,6.882116 12.72,16.22572 12.72,28.020763 0,11.795044 -3.62,20.505693 -10.87,27.638982 C 52.99,76.423309 43.66,80 32.24,80 30.9,80 28.71,79.929672 25.66,79.778969 V 57.876758 h 3.53 c 12.87,0 19.3,-5.405224 19.3,-16.22572 0,-10.157401 -6.33,-15.241125 -18.98,-15.241125 h -7.45 z"
     id="path7" />
  <path
     class="cls-2"
     d="m 105.7,25.009922 c 7.68,0 14.27,2.738483 19.76,8.225372 5.49,5.486889 8.24,12.05528 8.24,19.715096 0,7.659816 -2.78,14.386959 -8.35,19.854004 C 119.79,78.271439 113.07,81 105.21,81 97.35,81 90.62,78.261517 85.04,72.774628 79.46,67.287739 76.67,60.67966 76.67,52.95039 76.67,45.22112 79.46,38.444366 85.04,33.066619 90.62,27.688873 97.51,25 105.7,25 Z m -0.54,19.903614 c -2.17,0 -4.02,0.783842 -5.55,2.351524 -1.52,1.567683 -2.28,3.482637 -2.28,5.744862 0,2.262225 0.77,4.137491 2.31,5.715096 1.54,1.577604 3.38,2.371368 5.52,2.371368 2.14,0 4.03,-0.793764 5.57,-2.371368 1.54,-1.577605 2.31,-3.492559 2.31,-5.715096 0,-2.222537 -0.76,-4.177179 -2.28,-5.744862 -1.52,-1.567682 -3.39,-2.351524 -5.6,-2.351524 z"
     id="path9" />
  <path
     class="cls-2"
     d="M 162.51,5 V 80 H 142.18 V 5 Z"
     id="path11" />
  <path
     class="cls-2"
     d="M 194.76,25 V 80 H 174.43 V 25 Z"
     id="path13" />
  <path
     class="cls-1"
     d="m 240.7,25.020029 v 21.451202 c -2.86,0 -4.83,0.530772 -5.9,1.602331 -1.07,1.071558 -1.75,3.184632 -2.04,6.33922 -0.94,10.495266 -5,17.896031 -12.18,22.212309 C 216.77,78.878369 211.37,80 204.38,80 h -2.83 V 58.438638 h 0.92 c 3.26,0 5.59,-0.680991 6.99,-2.042972 1.39,-1.361981 2.2,-3.745448 2.42,-7.160415 0.29,-5.558084 0.81,-9.453751 1.55,-11.707028 0.74,-2.253278 2.26,-4.486526 4.54,-6.699745 C 221.96,26.942826 227.48,25 234.55,25 h 6.14 z"
     id="path15" />
  <path
     class="cls-1"
     d="m 265.44,5 v 20.758929 h 9.13 v 21.46855 h -9.13 c 0,4.307702 0.68,7.286114 2.04,8.915245 1.36,1.629131 3.85,2.448694 7.48,2.448694 V 79.950027 C 273.91,79.990005 273.13,80 272.62,80 c -4.6,0 -8.94,-1.06943 -13.02,-3.208289 -4.08,-2.138859 -7.35,-5.037313 -9.81,-8.695362 -3.12,-4.677506 -4.68,-10.864206 -4.68,-18.580091 V 5 Z"
     id="path17" />
  <path
     class="cls-1"
     d="m 310.29,25.009745 c 7.68,0 14.27,2.689582 19.76,8.07849 5.49,5.388909 8.24,11.840007 8.24,19.363041 0,7.523033 -2.78,14.130049 -8.35,19.499468 C 324.38,77.320163 317.66,80 309.8,80 c -7.86,0 -14.59,-2.689582 -20.17,-8.07849 -5.58,-5.388909 -8.37,-11.878987 -8.37,-19.470234 0,-7.591248 2.79,-14.246988 8.37,-19.528703 C 295.21,27.640858 302.1,25 310.29,25 Z m -0.54,19.548193 c -2.17,0 -4.02,0.769844 -5.55,2.309532 -1.52,1.539688 -2.28,3.420446 -2.28,5.642275 0,2.221828 0.77,4.063607 2.31,5.61304 1.54,1.549433 3.38,2.329022 5.52,2.329022 2.14,0 4.03,-0.779589 5.57,-2.329022 1.54,-1.549433 2.31,-3.430191 2.31,-5.61304 0,-2.182849 -0.76,-4.102587 -2.28,-5.642275 -1.52,-1.539688 -3.39,-2.309532 -5.6,-2.309532 z"
     id="path19" />
  <path
     class="cls-1"
     d="m 376.52,25.596206 v 21.612466 c -1.41,-0.794941 -2.7,-1.192412 -3.86,-1.192412 -3.7,0 -5.55,2.812105 -5.55,8.426378 V 80 H 346.78 V 50.557362 c 0,-7.780488 2.14,-13.98103 6.42,-18.611563 C 357.48,27.315266 363.19,25 370.33,25 c 1.59,0 3.66,0.198735 6.2,0.596206 z"
     id="path21" />
  <path
     class="cls-1"
     d="m 435.78,55.756771 -27.10588,-0.163356 c -0.47,-1.518853 -1.22854,-2.918711 -1.22854,-4.194158 0,-1.762258 0.18645,-3.420104 0.83645,-5.11421 l 7.26797,0.09573 c -0.73,-3.913967 -2.99,-5.880686 -6.8,-5.880686 -2.54,0 -4.6,1.051513 -6.2,3.15454 -1.6,2.103027 -2.39,4.790228 -2.39,8.07134 0,3.281112 0.77,6.192247 2.31,8.314746 1.54,2.112763 3.56,3.174013 6.06,3.174013 2.03,0 3.99,-0.98336 5.87,-2.959816 l 11.58,13.552842 C 420.58,77.935918 414.58,80 407.98,80 c -8.05,0 -14.81,-2.628784 -20.28,-7.886352 -5.47,-5.257567 -8.21,-11.771109 -8.21,-19.53089 0,-7.75978 2.76,-14.25385 8.29,-19.589308 C 393.31,27.667729 400.1,25 408.14,25 c 8.04,0 14.47,2.599575 19.82,7.808462 5.35,5.208886 8.02,11.61533 8.02,19.238803 0,0.778899 -0.07,2.015401 -0.22,3.709506 z"
     id="path23"
     sodipodi:nodetypes="ccsccssscsccssscssscc" />
</svg>
